<svg xmlns="http://www.w3.org/2000/svg" xmlns:xlink="http://www.w3.org/1999/xlink" width="500" zoomAndPan="magnify" viewBox="0 0 375 374.999991" height="500" preserveAspectRatio="xMidYMid meet" version="1.0"><defs><filter x="0%" y="0%" width="100%" height="100%" id="5e170a47f3"><feColorMatrix values="0 0 0 0 1 0 0 0 0 1 0 0 0 0 1 0 0 0 1 0" color-interpolation-filters="sRGB"/></filter><g/><clipPath id="24c7e10bea"><path d="M 1 3 L 375 3 L 375 373.164062 L 1 373.164062 Z M 1 3 " clip-rule="nonzero"/></clipPath><mask id="d87ca155ac"><g filter="url(#5e170a47f3)"><rect x="-37.5" width="450" fill="#000000" y="-37.499999" height="449.999989" fill-opacity="0.8"/></g></mask><clipPath id="5b2d78fddd"><path d="M 0.441406 0.359375 L 294 0.359375 L 294 339 L 0.441406 339 Z M 0.441406 0.359375 " clip-rule="nonzero"/></clipPath><clipPath id="0a4d05a8c2"><rect x="0" width="374" y="0" height="371"/></clipPath></defs><g clip-path="url(#24c7e10bea)"><g mask="url(#d87ca155ac)"><g transform="matrix(1, 0, 0, 1, 1, 3)"><g clip-path="url(#0a4d05a8c2)"><path fill="#ff0000" d="M 344.945312 145.34375 C 338.089844 124.929688 327.425781 105.882812 313.558594 89.582031 C 299.695312 73.128906 282.632812 59.414062 263.433594 49.511719 C 244.238281 39.457031 222.90625 33.363281 200.96875 31.6875 C 179.027344 30.011719 156.632812 32.601562 135.605469 40.066406 C 135.605469 40.21875 135.605469 40.371094 135.300781 40.675781 C 134.691406 41.285156 133.472656 42.046875 131.949219 42.65625 C 130.425781 43.417969 128.75 44.027344 127.074219 44.636719 C 117.78125 47.988281 108.792969 52.40625 100.109375 57.433594 C 84.566406 67.640625 71.160156 80.746094 60.191406 95.523438 C 62.324219 92.476562 64.761719 89.734375 67.046875 86.839844 C 69.484375 84.097656 71.921875 81.355469 74.511719 78.765625 C 79.539062 73.433594 85.175781 68.707031 90.964844 64.441406 C 92.644531 63.070312 94.320312 62.003906 95.539062 61.394531 C 96.757812 60.785156 97.519531 60.632812 97.671875 61.089844 C 97.671875 61.546875 97.0625 62.308594 95.84375 63.527344 C 94.777344 64.746094 93.101562 66.117188 91.425781 67.488281 C 76.1875 79.527344 62.628906 95.523438 52.726562 112.890625 C 42.667969 130.261719 36.269531 149 32.15625 166.066406 C 29.261719 188.308594 31.394531 211.011719 37.945312 231.882812 C 44.496094 252.753906 55.621094 271.953125 69.789062 287.644531 C 83.957031 303.339844 101.328125 315.832031 119.914062 324.058594 C 138.503906 332.285156 158.460938 336.398438 177.808594 336.550781 C 179.332031 336.550781 181.160156 336.703125 181.921875 337.007812 C 182.992188 337.3125 182.6875 337.617188 181.3125 337.617188 C 161.050781 338.53125 139.570312 335.027344 119 326.34375 C 108.792969 321.925781 98.738281 316.441406 89.441406 309.585938 C 80.148438 302.730469 71.3125 294.652344 63.542969 285.511719 C 55.773438 276.371094 48.917969 266.316406 43.429688 255.195312 C 37.945312 244.222656 33.527344 232.492188 30.632812 220.152344 C 27.890625 207.808594 26.519531 195.164062 26.671875 182.214844 L 26.671875 179.777344 L 27.128906 172.464844 C 27.433594 169.265625 27.738281 166.066406 28.195312 162.863281 C 29.261719 156.464844 30.328125 150.066406 32.15625 143.820312 L 33.375 139.25 L 34.898438 134.679688 C 35.8125 131.632812 37.03125 128.738281 38.25 125.84375 C 30.480469 142.296875 25.453125 160.578125 23.777344 179.929688 C 24.234375 181.910156 24.386719 185.109375 24.386719 188.917969 C 24.691406 198.058594 25.757812 207.046875 27.433594 215.886719 C 27.433594 215.429688 27.585938 215.277344 27.738281 215.125 C 28.347656 215.125 29.414062 218.324219 30.175781 222.132812 C 34.898438 244.222656 44.34375 265.097656 57.601562 283.378906 C 57.90625 283.835938 58.210938 284.292969 58.515625 284.597656 C 75.578125 306.691406 98.28125 324.363281 123.722656 335.027344 C 149.167969 346 177.199219 349.960938 204.472656 346.914062 C 206.148438 346.761719 207.824219 346.457031 209.5 346.304688 C 211.175781 346 212.851562 345.847656 214.527344 345.542969 L 219.554688 344.472656 L 222.144531 344.015625 L 224.582031 343.40625 L 229.613281 342.1875 L 234.488281 340.664062 C 237.839844 339.75 240.886719 338.378906 244.238281 337.3125 C 250.636719 334.722656 256.882812 332.132812 262.824219 328.78125 C 265.871094 327.257812 268.765625 325.429688 271.660156 323.753906 C 273.183594 322.839844 274.558594 321.925781 275.929688 321.011719 C 277.300781 320.097656 278.824219 319.183594 280.195312 318.117188 C 302.4375 302.273438 320.265625 280.636719 331.84375 256.109375 C 332.300781 254.585938 333.214844 252.601562 333.976562 251.6875 C 334.738281 250.621094 335.042969 250.925781 334.585938 252.449219 C 334.890625 252.449219 335.347656 252.296875 335.195312 252.753906 C 328.1875 271.800781 317.671875 289.320312 303.808594 304.710938 C 289.792969 319.945312 272.269531 332.894531 251.246094 341.730469 C 236.773438 347.828125 221.535156 351.789062 205.996094 353.617188 C 222.144531 352.703125 237.535156 349.808594 251.246094 346 C 270.441406 338.226562 288.269531 326.800781 303.351562 312.785156 C 318.433594 298.765625 331.082031 282.464844 340.832031 264.945312 L 339.765625 266.164062 C 340.527344 264.640625 341.441406 263.117188 342.203125 262.050781 C 342.964844 260.984375 343.421875 260.222656 343.726562 260.375 C 344.03125 260.375 344.03125 260.984375 343.726562 262.203125 C 343.421875 263.269531 342.8125 264.792969 341.898438 266.46875 C 337.9375 275 333.214844 283.378906 327.730469 291.300781 C 322.246094 299.226562 315.996094 306.539062 309.292969 313.546875 C 302.4375 320.402344 295.125 326.800781 287.203125 332.4375 C 279.28125 338.074219 270.746094 343.101562 261.910156 347.371094 C 226.410156 364.585938 184.515625 368.699219 145.511719 359.101562 C 126.007812 354.226562 107.269531 346 90.507812 334.722656 C 73.75 323.449219 58.820312 309.28125 46.632812 292.976562 C 34.441406 276.675781 25.148438 258.089844 19.207031 238.585938 C 13.113281 219.085938 10.828125 198.363281 11.589844 177.796875 C 12.960938 145.191406 23.929688 113.195312 42.363281 86.535156 C 60.648438 59.71875 86.546875 38.390625 116.257812 25.132812 C 120.675781 23 124.941406 21.933594 127.988281 21.171875 C 131.035156 20.5625 133.167969 20.5625 133.320312 21.324219 C 133.472656 22.695312 126.464844 26.203125 117.933594 30.164062 C 89.59375 42.960938 65.21875 63.679688 47.851562 89.125 C 30.328125 114.566406 19.816406 144.582031 17.988281 175.511719 C 17.226562 189.070312 17.683594 202.78125 20.121094 216.039062 C 22.40625 229.292969 26.367188 242.394531 31.546875 254.738281 C 23.625 235.234375 19.816406 214.363281 19.816406 193.640625 C 19.359375 185.71875 19.664062 177.796875 20.425781 169.875 C 21.1875 161.949219 22.710938 154.027344 24.539062 146.105469 C 26.671875 138.335938 29.109375 130.566406 32.308594 123.101562 C 35.507812 115.632812 39.164062 108.320312 43.429688 101.3125 C 53.640625 84.25 66.589844 69.621094 81.367188 57.738281 C 96.148438 45.855469 112.753906 36.410156 130.578125 30.011719 C 148.253906 23.609375 166.992188 19.953125 186.191406 19.34375 C 195.789062 19.039062 205.386719 19.496094 214.984375 20.714844 C 224.582031 21.933594 234.335938 24.066406 243.78125 26.8125 C 262.367188 32.296875 278.824219 40.371094 293.601562 49.816406 C 300.914062 54.691406 307.769531 59.871094 314.320312 65.507812 C 320.722656 71.144531 326.816406 77.242188 332.300781 83.640625 C 337.9375 90.039062 342.964844 96.894531 347.535156 104.054688 C 352.105469 111.214844 356.21875 118.988281 359.875 126.910156 C 363.378906 134.984375 366.429688 143.363281 368.714844 152.199219 C 371 161.035156 372.675781 170.179688 373.589844 179.777344 C 373.894531 183.128906 373.742188 186.9375 373.285156 188.15625 C 373.132812 188.765625 372.828125 188.765625 372.523438 188.15625 C 372.21875 187.546875 372.066406 186.328125 371.914062 184.652344 C 368.867188 147.933594 354.695312 114.71875 332.910156 88.058594 C 327.578125 81.355469 321.484375 75.109375 315.082031 69.316406 C 311.882812 66.269531 308.53125 63.679688 305.179688 60.785156 C 303.503906 59.414062 301.675781 58.195312 300 56.824219 C 298.324219 55.453125 296.34375 54.386719 294.667969 53.015625 C 287.355469 48.140625 279.738281 43.570312 271.660156 39.761719 C 263.585938 35.953125 255.054688 32.601562 246.371094 30.011719 C 227.628906 24.371094 208.433594 21.933594 189.390625 22.238281 C 170.34375 22.695312 151.605469 26.046875 133.777344 32.449219 C 115.953125 38.847656 99.195312 48.140625 84.261719 60.175781 C 69.332031 72.214844 56.382812 86.839844 46.175781 103.597656 C 43.429688 108.167969 40.839844 112.738281 38.554688 117.464844 C 42.667969 109.84375 47.242188 102.53125 52.421875 95.828125 C 57.601562 89.125 63.238281 82.878906 69.179688 77.089844 C 91.730469 53.625 120.828125 37.324219 152.0625 30.316406 C 183.296875 23.304688 216.355469 25.4375 246.675781 36.714844 C 258.40625 41.132812 269.679688 46.617188 280.042969 53.320312 C 290.554688 60.023438 300.152344 67.945312 308.835938 76.632812 C 311.121094 78.765625 313.101562 81.203125 315.234375 83.488281 C 317.367188 85.773438 319.199219 88.210938 321.179688 90.648438 C 324.988281 95.523438 328.644531 100.703125 331.84375 106.035156 C 338.242188 116.699219 343.574219 128.128906 347.382812 140.316406 C 348.296875 143.363281 349.210938 146.410156 349.363281 148.847656 C 349.667969 151.285156 349.667969 153.113281 349.210938 153.875 C 348.90625 154.484375 348.144531 153.875 347.382812 152.351562 C 346.773438 150.828125 345.859375 148.390625 344.945312 145.34375 Z M 121.894531 343.101562 C 111.078125 338.988281 100.71875 333.65625 90.964844 327.257812 C 109.707031 340.359375 131.1875 349.65625 153.585938 354.378906 C 175.980469 359.101562 199.445312 359.253906 221.992188 354.683594 C 205.386719 357.273438 188.171875 357.730469 171.105469 355.902344 C 154.195312 353.921875 137.4375 349.65625 121.894531 343.101562 Z M 121.894531 343.101562 " fill-opacity="1" fill-rule="nonzero"/><path fill="#ff0000" d="M 173.390625 368.851562 C 159.679688 367.328125 146.121094 364.128906 133.015625 359.863281 C 119.914062 355.597656 107.421875 350.265625 95.84375 344.472656 C 94.777344 343.863281 94.015625 343.710938 94.472656 344.167969 C 94.929688 344.777344 96.148438 345.542969 97.367188 346.152344 C 108.488281 351.636719 120.675781 356.816406 133.320312 360.777344 C 145.96875 364.890625 159.375 367.9375 172.476562 369.460938 C 174 369.613281 175.371094 369.613281 175.523438 369.308594 C 175.828125 369.308594 174.761719 369.003906 173.390625 368.851562 Z M 173.390625 368.851562 " fill-opacity="1" fill-rule="nonzero"/><g clip-path="url(#5b2d78fddd)"><path fill="#ff0000" d="M 79.691406 335.484375 C 61.867188 323.601562 45.71875 308.0625 32.917969 289.625 C 20.273438 271.191406 10.675781 249.859375 5.648438 227.3125 C 0.621094 204.761719 -0.144531 180.996094 3.667969 157.683594 C 7.476562 134.375 16.007812 111.671875 28.5 91.5625 C 48.765625 58.652344 78.625 33.515625 112.601562 18.429688 C 114.734375 17.515625 116.867188 16.449219 119 15.6875 L 125.550781 13.25 C 129.96875 11.726562 134.386719 10.203125 138.808594 9.136719 C 143.226562 7.765625 147.796875 6.851562 152.367188 5.9375 C 156.9375 5.175781 161.507812 4.261719 166.230469 3.804688 C 170.800781 3.195312 175.523438 2.890625 180.246094 2.585938 C 182.535156 2.433594 184.972656 2.433594 187.257812 2.433594 C 189.542969 2.28125 191.980469 2.433594 194.265625 2.433594 C 196.550781 2.585938 198.988281 2.433594 201.273438 2.585938 C 203.558594 2.738281 205.996094 2.890625 208.28125 3.042969 C 210.566406 3.195312 213.003906 3.5 215.289062 3.804688 C 216.507812 3.957031 217.574219 4.109375 218.792969 4.261719 L 222.296875 4.871094 C 234.640625 6.851562 246.828125 10.050781 258.253906 14.164062 C 269.832031 18.277344 280.652344 23.304688 290.859375 28.945312 C 292.535156 29.859375 293.753906 30.316406 293.296875 29.707031 C 292.6875 28.945312 291.011719 27.726562 289.03125 26.660156 C 267.699219 14.773438 244.238281 6.699219 219.859375 3.042969 C 195.484375 -0.613281 170.496094 0.300781 146.121094 5.785156 C 121.894531 11.269531 98.585938 21.628906 78.167969 36.257812 C 58.058594 50.425781 40.535156 69.011719 27.585938 90.496094 C 15.09375 110.910156 6.5625 133.765625 2.90625 157.378906 C -0.90625 180.996094 -0.144531 205.066406 5.039062 228.074219 C 10.21875 251.078125 19.96875 272.714844 33.222656 291.300781 C 46.328125 309.890625 62.933594 325.582031 81.214844 337.464844 C 82.128906 338.074219 82.890625 338.226562 82.585938 337.769531 C 81.976562 337.160156 80.605469 336.09375 79.691406 335.484375 Z M 79.691406 335.484375 " fill-opacity="1" fill-rule="nonzero"/></g><path fill="#ff0000" d="M 146.882812 7.460938 C 133.929688 10.660156 121.285156 15.382812 109.25 21.324219 C 97.367188 27.269531 85.9375 34.429688 75.578125 42.808594 C 65.066406 51.035156 55.316406 60.480469 46.785156 70.6875 C 38.097656 81.050781 30.480469 92.324219 23.929688 104.359375 C 16.769531 117.308594 11.589844 131.175781 8.238281 145.496094 C 4.886719 159.816406 3.210938 174.75 3.972656 190.136719 C 4.277344 200.34375 5.800781 210.097656 7.78125 219.695312 C 9.761719 229.140625 12.503906 238.28125 15.703125 247.117188 C 17.226562 251.535156 19.207031 255.957031 21.035156 260.222656 C 22.101562 262.355469 23.015625 264.488281 24.082031 266.621094 C 25.148438 268.753906 26.214844 270.886719 27.433594 273.019531 C 32.003906 281.398438 37.03125 289.625 42.972656 297.699219 C 43.734375 298.765625 44.648438 299.683594 45.105469 299.835938 C 45.257812 299.679688 44.800781 298.917969 44.039062 297.851562 C 31.546875 280.332031 21.796875 261.59375 15.09375 241.785156 C 8.542969 221.980469 5.191406 200.953125 5.648438 179.167969 C 5.953125 169.113281 7.171875 159.054688 9.152344 149.152344 C 11.132812 139.554688 14.027344 129.957031 17.683594 120.664062 C 24.996094 102.074219 35.507812 85.011719 48.15625 69.925781 C 73.902344 39.914062 108.640625 18.277344 147.339844 8.222656 C 149.015625 7.765625 149.929688 7.460938 149.929688 7.15625 C 149.777344 7.003906 148.40625 7.15625 146.882812 7.460938 Z M 146.882812 7.460938 " fill-opacity="1" fill-rule="nonzero"/><path fill="#ff0000" d="M 35.660156 173.378906 C 34.289062 186.023438 34.441406 199.125 36.421875 211.925781 C 38.402344 224.722656 42.058594 237.367188 47.394531 249.097656 C 52.726562 260.832031 59.582031 271.496094 67.351562 280.789062 C 75.273438 290.082031 84.109375 297.851562 93.101562 304.101562 C 94.015625 304.710938 94.320312 304.710938 93.863281 303.949219 C 93.40625 303.339844 92.1875 302.273438 91.425781 301.664062 C 82.585938 295.414062 74.054688 287.644531 66.742188 278.351562 C 59.429688 269.058594 52.878906 258.546875 48.003906 247.117188 C 43.125 235.691406 39.621094 223.503906 37.792969 211.164062 C 36.117188 198.820312 35.8125 186.175781 37.03125 173.988281 C 37.183594 171.703125 37.335938 169.570312 36.878906 169.265625 C 36.574219 169.265625 35.964844 170.941406 35.660156 173.378906 Z M 35.660156 173.378906 " fill-opacity="1" fill-rule="nonzero"/><path fill="#ff0000" d="M 187.105469 365.195312 C 173.390625 365.042969 159.679688 363.214844 146.273438 359.863281 C 133.015625 356.511719 120.066406 351.484375 107.878906 345.238281 C 95.691406 338.988281 84.414062 331.21875 73.902344 322.535156 C 63.542969 313.851562 54.097656 303.949219 45.71875 293.28125 C 30.632812 272.105469 20.121094 248.03125 14.789062 222.742188 C 14.179688 219.085938 13.113281 216.191406 12.65625 216.34375 C 12.046875 216.34375 12.199219 219.542969 12.808594 223.199219 C 15.246094 236.148438 19.207031 248.792969 24.386719 260.832031 C 24.082031 260.527344 23.777344 260.527344 23.777344 260.679688 C 4.886719 218.324219 3.210938 168.503906 19.359375 124.625 C 20.273438 122.1875 20.730469 120.359375 20.425781 120.207031 C 20.121094 120.054688 19.054688 121.882812 18.140625 124.320312 C 9.609375 147.171875 5.953125 171.855469 7.171875 196.078125 C 8.390625 220.304688 14.636719 244.222656 25.300781 265.859375 C 25.910156 267.535156 26.824219 269.363281 27.890625 271.34375 C 32.613281 280.332031 38.097656 288.863281 44.34375 296.785156 C 50.441406 304.710938 57.296875 312.023438 64.609375 318.878906 C 79.234375 332.4375 96.148438 343.558594 114.734375 351.789062 C 127.988281 357.578125 141.703125 361.996094 155.566406 364.738281 C 169.582031 367.480469 183.601562 368.546875 197.769531 368.242188 C 211.9375 367.9375 225.953125 365.804688 239.515625 361.996094 C 253.226562 358.1875 266.480469 352.855469 278.824219 345.847656 C 298.476562 334.722656 315.234375 319.335938 329.40625 301.664062 C 335.347656 294.347656 340.984375 286.273438 345.707031 278.199219 C 348.144531 274.085938 350.125 269.972656 352.105469 265.859375 C 353.933594 261.59375 355.609375 257.480469 356.980469 253.363281 C 364.292969 230.511719 365.515625 208.878906 363.378906 188.765625 C 363.226562 187.546875 363.074219 187.394531 362.921875 188.308594 C 362.769531 189.070312 362.617188 190.746094 362.769531 191.660156 C 363.683594 201.714844 363.683594 212.382812 362.3125 223.199219 C 361.09375 233.863281 358.808594 244.679688 355.914062 254.738281 C 348.296875 273.78125 337.480469 291.453125 324.226562 306.84375 C 310.816406 322.230469 295.125 335.332031 277.605469 345.847656 C 270.59375 349.503906 263.28125 352.703125 255.96875 355.140625 C 248.65625 357.730469 241.191406 359.558594 233.726562 361.234375 C 218.488281 363.976562 203.101562 365.5 187.105469 365.195312 Z M 187.105469 365.195312 " fill-opacity="1" fill-rule="nonzero"/></g></g></g></g><g fill="#ff0000" fill-opacity="1"><g transform="translate(117.216505, 288.180982)"><g><path d="M 3.039062 0 C 5.113281 0 5.300781 -1.921875 6.632812 -9.328125 C 6.757812 -6.847656 7.066406 -0.929688 9.484375 -1.054688 C 13.605469 -1.179688 14.164062 -17.914062 14.289062 -21.664062 C 14.289062 -22.003906 14.007812 -22.285156 13.667969 -22.285156 C 13.328125 -22.285156 13.046875 -22.003906 13.046875 -21.664062 C 12.925781 -15.21875 11.652344 -2.292969 9.453125 -2.292969 C 9.421875 -2.292969 9.359375 -2.292969 9.234375 -2.417969 C 8.027344 -3.625 7.78125 -9.390625 7.78125 -13.203125 C 7.78125 -14.441406 7.808594 -15.464844 7.839844 -16.085938 C 7.871094 -16.457031 7.59375 -16.738281 7.222656 -16.738281 C 6.878906 -16.738281 6.695312 -16.582031 6.601562 -16.242188 C 4.121094 -2.601562 4.121094 -1.238281 3.007812 -1.238281 C 1.921875 -1.238281 1.519531 -4.214844 1.519531 -8.058594 C 1.519531 -12.367188 2.046875 -17.605469 2.601562 -20.457031 C 2.695312 -20.828125 2.417969 -21.199219 2.015625 -21.199219 C 1.734375 -21.199219 1.488281 -21.042969 1.394531 -20.703125 C 0.898438 -18.410156 0.277344 -12.863281 0.277344 -8.152344 C 0.277344 -6.878906 0.308594 -5.703125 0.433594 -4.617188 C 0.589844 -2.757812 1.148438 0 2.976562 0 Z M 3.039062 0 "/></g></g></g><g fill="#ff0000" fill-opacity="1"><g transform="translate(139.215226, 288.180982)"><g><path d="M 3.253906 -4.121094 C 5.269531 -4.121094 7.75 -5.269531 10.074219 -9.082031 C 10.136719 -9.175781 10.164062 -9.265625 10.164062 -9.390625 C 10.164062 -9.671875 10.074219 -9.824219 9.855469 -9.917969 C 9.761719 -9.980469 9.640625 -10.011719 9.546875 -10.011719 C 9.328125 -10.011719 9.144531 -9.917969 9.019531 -9.730469 C 7.933594 -7.902344 6.757812 -6.695312 5.515625 -5.980469 C 4.804688 -5.609375 3.96875 -5.363281 3.128906 -5.363281 C 1.984375 -5.363281 0.992188 -5.859375 0.992188 -7.191406 C 0.992188 -7.34375 1.023438 -7.5 1.054688 -7.71875 C 3.128906 -7.871094 5.578125 -9.390625 5.578125 -11.035156 C 5.578125 -11.933594 4.898438 -12.644531 3.90625 -12.644531 C 3.285156 -12.644531 2.542969 -12.367188 1.765625 -11.621094 C 0.558594 -10.476562 -0.21875 -8.710938 -0.21875 -7.191406 C -0.21875 -5.546875 0.742188 -4.121094 3.253906 -4.121094 Z M 1.488281 -9.050781 C 2.324219 -10.785156 3.347656 -11.40625 3.9375 -11.40625 C 4.152344 -11.40625 4.277344 -11.34375 4.308594 -11.1875 C 4.464844 -10.476562 3.007812 -9.296875 1.488281 -9.050781 Z M 1.488281 -9.050781 "/></g></g></g><g fill="#ff0000" fill-opacity="1"><g transform="translate(154.801438, 288.180982)"><g><path d="M 0.683594 -1.953125 C 1.023438 -1.953125 1.269531 -2.261719 1.269531 -2.601562 C 1.269531 -3.128906 1.238281 -3.6875 1.238281 -4.214844 C 1.238281 -4.988281 1.269531 -5.734375 1.300781 -6.507812 C 1.550781 -9.328125 4.648438 -11.4375 5.980469 -11.4375 C 6.199219 -11.4375 6.382812 -11.375 6.476562 -11.25 C 6.601562 -11.09375 6.664062 -10.878906 6.664062 -10.628906 C 6.664062 -10.105469 6.445312 -9.421875 6.324219 -9.050781 C 2.632812 -7.65625 1.363281 -5.859375 1.363281 -4.742188 C 1.363281 -4.027344 1.859375 -3.5625 2.601562 -3.5625 C 3.71875 -3.5625 5.578125 -4.710938 6.664062 -6.789062 C 6.910156 -7.253906 7.066406 -7.6875 7.285156 -8.089844 C 8.617188 -8.554688 9.824219 -8.769531 10.972656 -8.769531 C 11.3125 -8.769531 11.589844 -9.050781 11.589844 -9.390625 C 11.589844 -9.730469 11.3125 -10.011719 10.972656 -10.011719 C 9.949219 -10.011719 8.863281 -9.855469 7.75 -9.546875 C 7.839844 -9.949219 7.902344 -10.289062 7.902344 -10.628906 C 7.902344 -11.964844 7.097656 -12.644531 6.011719 -12.644531 C 5.113281 -12.644531 4 -12.210938 2.882812 -11.34375 C 3.78125 -12.800781 4.523438 -14.351562 5.113281 -16.023438 C 5.828125 -18.007812 6.074219 -19.371094 6.074219 -20.363281 C 6.074219 -21.757812 5.515625 -22.285156 4.929688 -22.285156 C 4.523438 -22.285156 4.152344 -22.128906 3.875 -21.789062 C 2.976562 -20.828125 1.953125 -18.316406 1.207031 -15.21875 C 0.433594 -11.964844 0 -8.273438 0 -4.339844 L 0 -3.441406 C 0 -3.160156 0 -2.851562 0.03125 -2.542969 C 0.03125 -2.199219 0.308594 -1.953125 0.652344 -1.953125 Z M 1.828125 -12.027344 C 2.480469 -16.242188 3.875 -20.023438 4.804688 -20.953125 C 4.835938 -20.796875 4.867188 -20.609375 4.867188 -20.363281 C 4.867188 -18.71875 3.75 -15.09375 1.828125 -12.027344 Z M 2.601562 -4.773438 C 2.417969 -4.957031 3.191406 -6.136719 5.578125 -7.375 C 4.648438 -5.609375 3.160156 -4.867188 2.601562 -4.773438 Z M 2.601562 -4.773438 "/></g></g></g><g fill="#ff0000" fill-opacity="1"><g transform="translate(172.060472, 288.180982)"><g/></g></g><g fill="#ff0000" fill-opacity="1"><g transform="translate(185.230366, 288.180982)"><g><path d="M 9.175781 0 C 9.515625 -0.03125 9.730469 -0.277344 9.730469 -0.621094 L 9.730469 -0.683594 C 9.328125 -4.308594 9.175781 -8.863281 9.175781 -12.832031 L 9.175781 -14.691406 C 9.578125 -16.332031 10.226562 -19.214844 10.226562 -20.703125 C 10.226562 -21.324219 10.136719 -21.726562 9.949219 -21.945312 C 9.792969 -22.160156 9.546875 -22.285156 9.265625 -22.285156 C 9.050781 -22.285156 8.863281 -22.191406 8.738281 -22.035156 C 8.027344 -21.230469 7.933594 -16.117188 7.933594 -14.847656 C 7.160156 -11.589844 6.042969 -8.492188 3.441406 -6.167969 C 2.820312 -5.609375 2.292969 -5.332031 1.828125 -5.332031 C 1.179688 -5.332031 0.835938 -5.949219 0.835938 -6.820312 C 0.835938 -8.710938 2.386719 -11.53125 5.734375 -11.4375 C 6.074219 -11.40625 6.355469 -11.683594 6.355469 -12.027344 C 6.382812 -12.367188 6.105469 -12.644531 5.765625 -12.675781 C 1.734375 -12.769531 -0.402344 -9.421875 -0.402344 -6.820312 C -0.402344 -5.332031 0.339844 -4.121094 1.859375 -4.121094 C 4.339844 -4.121094 6.972656 -8.273438 7.933594 -10.628906 C 8.027344 -6.910156 8.152344 -3.378906 8.492188 -0.558594 C 8.523438 -0.1875 8.738281 0 9.113281 0 Z M 9.175781 0 "/></g></g></g><g fill="#ff0000" fill-opacity="1"><g transform="translate(203.449737, 288.180982)"><g><path d="M 3.253906 -4.121094 C 5.269531 -4.121094 7.75 -5.269531 10.074219 -9.082031 C 10.136719 -9.175781 10.164062 -9.265625 10.164062 -9.390625 C 10.164062 -9.671875 10.074219 -9.824219 9.855469 -9.917969 C 9.761719 -9.980469 9.640625 -10.011719 9.546875 -10.011719 C 9.328125 -10.011719 9.144531 -9.917969 9.019531 -9.730469 C 7.933594 -7.902344 6.757812 -6.695312 5.515625 -5.980469 C 4.804688 -5.609375 3.96875 -5.363281 3.128906 -5.363281 C 1.984375 -5.363281 0.992188 -5.859375 0.992188 -7.191406 C 0.992188 -7.34375 1.023438 -7.5 1.054688 -7.71875 C 3.128906 -7.871094 5.578125 -9.390625 5.578125 -11.035156 C 5.578125 -11.933594 4.898438 -12.644531 3.90625 -12.644531 C 3.285156 -12.644531 2.542969 -12.367188 1.765625 -11.621094 C 0.558594 -10.476562 -0.21875 -8.710938 -0.21875 -7.191406 C -0.21875 -5.546875 0.742188 -4.121094 3.253906 -4.121094 Z M 1.488281 -9.050781 C 2.324219 -10.785156 3.347656 -11.40625 3.9375 -11.40625 C 4.152344 -11.40625 4.277344 -11.34375 4.308594 -11.1875 C 4.464844 -10.476562 3.007812 -9.296875 1.488281 -9.050781 Z M 1.488281 -9.050781 "/></g></g></g><g fill="#ff0000" fill-opacity="1"><g transform="translate(219.035952, 288.180982)"><g><path d="M 2.820312 -4.183594 C 4.121094 -4.183594 4.492188 -5.703125 4.742188 -6.695312 C 4.988281 -7.53125 5.175781 -8.152344 5.394531 -8.988281 C 5.949219 -8.648438 6.601562 -8.492188 7.34375 -8.492188 C 7.964844 -8.492188 8.617188 -8.617188 9.265625 -8.894531 C 9.546875 -8.988281 9.671875 -9.175781 9.671875 -9.453125 C 9.671875 -9.484375 9.640625 -9.578125 9.609375 -9.699219 C 9.515625 -9.949219 9.296875 -10.074219 9.019531 -10.074219 C 8.925781 -10.074219 8.832031 -10.074219 8.800781 -10.042969 C 8.304688 -9.824219 7.808594 -9.730469 7.34375 -9.730469 C 6.445312 -9.730469 5.765625 -10.105469 5.671875 -10.382812 C 5.671875 -10.476562 5.734375 -10.570312 5.734375 -10.722656 C 5.734375 -10.972656 5.640625 -11.21875 5.269531 -11.34375 C 4.929688 -11.4375 4.679688 -11.3125 4.523438 -10.972656 L 4.433594 -10.539062 C 4.246094 -9.265625 3.285156 -5.332031 2.789062 -5.425781 C 2.292969 -5.671875 1.613281 -7.996094 1.613281 -10.414062 C 1.613281 -10.941406 1.644531 -11.46875 1.703125 -11.964844 C 1.734375 -12.335938 1.488281 -12.675781 1.085938 -12.675781 C 0.742188 -12.675781 0.527344 -12.492188 0.464844 -12.148438 C 0.402344 -11.714844 0.371094 -11.1875 0.371094 -10.570312 C 0.371094 -7.902344 0.992188 -4.183594 2.820312 -4.183594 Z M 2.820312 -4.183594 "/></g></g></g><g fill="#ff0000" fill-opacity="1"><g transform="translate(234.498254, 288.180982)"><g><path d="M 3.253906 -4.121094 C 5.269531 -4.121094 7.75 -5.269531 10.074219 -9.082031 C 10.136719 -9.175781 10.164062 -9.265625 10.164062 -9.390625 C 10.164062 -9.671875 10.074219 -9.824219 9.855469 -9.917969 C 9.761719 -9.980469 9.640625 -10.011719 9.546875 -10.011719 C 9.328125 -10.011719 9.144531 -9.917969 9.019531 -9.730469 C 7.933594 -7.902344 6.757812 -6.695312 5.515625 -5.980469 C 4.804688 -5.609375 3.96875 -5.363281 3.128906 -5.363281 C 1.984375 -5.363281 0.992188 -5.859375 0.992188 -7.191406 C 0.992188 -7.34375 1.023438 -7.5 1.054688 -7.71875 C 3.128906 -7.871094 5.578125 -9.390625 5.578125 -11.035156 C 5.578125 -11.933594 4.898438 -12.644531 3.90625 -12.644531 C 3.285156 -12.644531 2.542969 -12.367188 1.765625 -11.621094 C 0.558594 -10.476562 -0.21875 -8.710938 -0.21875 -7.191406 C -0.21875 -5.546875 0.742188 -4.121094 3.253906 -4.121094 Z M 1.488281 -9.050781 C 2.324219 -10.785156 3.347656 -11.40625 3.9375 -11.40625 C 4.152344 -11.40625 4.277344 -11.34375 4.308594 -11.1875 C 4.464844 -10.476562 3.007812 -9.296875 1.488281 -9.050781 Z M 1.488281 -9.050781 "/></g></g></g><g fill="#ff0000" fill-opacity="1"><g transform="translate(250.084468, 288.180982)"><g><path d="M 2.820312 -4.121094 C 4.742188 -4.121094 6.847656 -7.4375 7.75 -9.082031 C 7.78125 -9.144531 7.808594 -9.234375 7.808594 -9.390625 C 7.808594 -9.640625 7.71875 -9.824219 7.5 -9.949219 C 7.375 -9.980469 7.285156 -10.011719 7.222656 -10.011719 C 6.972656 -10.011719 6.789062 -9.886719 6.664062 -9.671875 C 5.515625 -7.625 3.78125 -5.363281 2.851562 -5.363281 C 2.757812 -5.363281 2.695312 -5.394531 2.601562 -5.425781 C 2.199219 -5.671875 1.550781 -6.042969 1.550781 -8.894531 C 1.550781 -11.46875 2.078125 -15.527344 3.285156 -21.476562 C 3.347656 -21.882812 3.191406 -22.128906 2.789062 -22.222656 C 2.449219 -22.316406 2.167969 -22.066406 2.078125 -21.726562 C 1.332031 -17.976562 0.308594 -12.894531 0.308594 -9.175781 C 0.308594 -6.230469 0.929688 -4.121094 2.820312 -4.121094 Z M 2.820312 -4.121094 "/></g></g></g><g fill="#ff0000" fill-opacity="1"><g transform="translate(263.378268, 288.180982)"><g><path d="M 4.929688 -5.796875 C 5.394531 -6.632812 5.671875 -7.59375 5.671875 -8.554688 C 6.011719 -8.492188 6.355469 -8.460938 6.757812 -8.460938 C 7.46875 -8.460938 8.246094 -8.585938 9.082031 -8.800781 C 9.390625 -8.894531 9.546875 -9.113281 9.546875 -9.453125 L 9.546875 -9.578125 C 9.453125 -9.824219 9.203125 -10.042969 8.925781 -10.042969 C 8.832031 -10.042969 8.863281 -10.011719 8.769531 -10.011719 C 8.058594 -9.792969 7.40625 -9.699219 6.789062 -9.699219 C 6.292969 -9.699219 5.859375 -9.792969 5.484375 -9.886719 C 5.238281 -11.003906 4.214844 -12.675781 3.039062 -12.519531 C 2.945312 -12.582031 2.820312 -12.613281 2.695312 -12.613281 C 2.542969 -12.613281 2.386719 -12.582031 2.292969 -12.492188 C 1.394531 -11.714844 0.710938 -10.722656 0.371094 -9.515625 C 0.15625 -8.832031 0.0625 -8.183594 0.0625 -7.5625 C 0.0625 -5.453125 1.238281 -4.121094 2.574219 -4.121094 C 3.410156 -4.121094 4.214844 -4.648438 4.929688 -5.796875 Z M 3.84375 -6.445312 C 3.378906 -5.703125 2.945312 -5.332031 2.542969 -5.332031 C 1.828125 -5.332031 1.332031 -6.355469 1.332031 -7.6875 C 1.332031 -8.679688 1.644531 -9.855469 2.417969 -10.847656 C 2.695312 -10.136719 3.378906 -9.421875 4.402344 -8.957031 C 4.402344 -8.832031 4.433594 -8.710938 4.433594 -8.554688 C 4.433594 -7.78125 4.183594 -7.035156 3.84375 -6.445312 Z M 3.84375 -6.445312 "/></g></g></g><g fill="#ff0000" fill-opacity="1"><g transform="translate(278.499803, 288.180982)"><g><path d="M 1.300781 8.925781 C 1.644531 8.925781 1.921875 8.648438 1.921875 8.304688 C 1.890625 7.71875 1.890625 7.160156 1.890625 6.570312 L 1.890625 4.835938 C 1.890625 1.828125 1.921875 -1.117188 2.015625 -4.183594 C 2.109375 -4.152344 2.261719 -4.152344 2.449219 -4.152344 C 3.285156 -4.152344 4.089844 -4.523438 4.804688 -4.988281 C 6.847656 -6.382812 8.089844 -8.738281 8.089844 -10.445312 C 8.089844 -11.714844 7.4375 -12.675781 5.859375 -12.675781 C 4.648438 -12.675781 3.378906 -12.117188 2.292969 -11.40625 L 2.386719 -13.359375 C 2.386719 -13.699219 2.136719 -14.007812 1.796875 -14.007812 C 1.457031 -14.039062 1.179688 -13.761719 1.148438 -13.421875 C 1.054688 -12.398438 1.085938 -11.375 0.992188 -10.351562 C 0.527344 -9.886719 0.125 -9.421875 -0.21875 -8.957031 C -0.277344 -8.832031 -0.308594 -8.710938 -0.308594 -8.617188 C -0.308594 -8.398438 -0.21875 -8.214844 -0.03125 -8.089844 C 0.0625 -8.027344 0.1875 -7.996094 0.339844 -7.996094 C 0.558594 -7.996094 0.742188 -8.089844 0.835938 -8.246094 L 0.929688 -8.398438 C 0.742188 -3.875 0.652344 0.589844 0.652344 4.957031 C 0.652344 6.074219 0.683594 7.222656 0.683594 8.335938 C 0.683594 8.679688 0.960938 8.925781 1.300781 8.925781 Z M 2.046875 -5.453125 C 2.136719 -6.910156 2.109375 -8.335938 2.199219 -9.792969 C 3.472656 -10.878906 4.898438 -11.4375 5.859375 -11.4375 C 6.199219 -11.4375 6.445312 -11.375 6.601562 -11.21875 C 6.820312 -11.035156 6.910156 -10.753906 6.910156 -10.382812 C 6.910156 -8.617188 4.433594 -5.394531 2.449219 -5.394531 C 2.355469 -5.394531 2.199219 -5.425781 2.046875 -5.453125 Z M 2.046875 -5.453125 "/></g></g></g><g fill="#ff0000" fill-opacity="1"><g transform="translate(295.077325, 288.180982)"><g><path d="M 3.253906 -4.121094 C 5.269531 -4.121094 7.75 -5.269531 10.074219 -9.082031 C 10.136719 -9.175781 10.164062 -9.265625 10.164062 -9.390625 C 10.164062 -9.671875 10.074219 -9.824219 9.855469 -9.917969 C 9.761719 -9.980469 9.640625 -10.011719 9.546875 -10.011719 C 9.328125 -10.011719 9.144531 -9.917969 9.019531 -9.730469 C 7.933594 -7.902344 6.757812 -6.695312 5.515625 -5.980469 C 4.804688 -5.609375 3.96875 -5.363281 3.128906 -5.363281 C 1.984375 -5.363281 0.992188 -5.859375 0.992188 -7.191406 C 0.992188 -7.34375 1.023438 -7.5 1.054688 -7.71875 C 3.128906 -7.871094 5.578125 -9.390625 5.578125 -11.035156 C 5.578125 -11.933594 4.898438 -12.644531 3.90625 -12.644531 C 3.285156 -12.644531 2.542969 -12.367188 1.765625 -11.621094 C 0.558594 -10.476562 -0.21875 -8.710938 -0.21875 -7.191406 C -0.21875 -5.546875 0.742188 -4.121094 3.253906 -4.121094 Z M 1.488281 -9.050781 C 2.324219 -10.785156 3.347656 -11.40625 3.9375 -11.40625 C 4.152344 -11.40625 4.277344 -11.34375 4.308594 -11.1875 C 4.464844 -10.476562 3.007812 -9.296875 1.488281 -9.050781 Z M 1.488281 -9.050781 "/></g></g></g><g fill="#ff0000" fill-opacity="1"><g transform="translate(310.66354, 288.180982)"><g><path d="M 0.621094 -4.371094 C 0.960938 -4.371094 1.238281 -4.617188 1.238281 -4.957031 C 1.394531 -8.273438 4.617188 -11.933594 6.230469 -11.621094 C 6.570312 -11.53125 6.847656 -11.746094 6.941406 -12.085938 C 7.035156 -12.429688 6.820312 -12.738281 6.476562 -12.832031 C 6.261719 -12.863281 6.105469 -12.894531 5.980469 -12.894531 C 4.246094 -12.894531 2.417969 -10.878906 1.519531 -9.390625 C 1.613281 -10.289062 1.644531 -11.21875 1.644531 -12.179688 C 1.644531 -12.519531 1.363281 -12.800781 1.023438 -12.800781 C 0.683594 -12.800781 0.402344 -12.519531 0.402344 -12.179688 C 0.371094 -9.824219 0.03125 -7.4375 0 -4.988281 C 0 -4.648438 0.277344 -4.402344 0.621094 -4.371094 Z M 0.621094 -4.371094 "/></g></g></g><g fill="#ffffff" fill-opacity="1"><g transform="translate(73.450396, 214.883686)"><g><path d="M 61.34375 4.167969 C 61.34375 0.667969 60.511719 -1.832031 60.511719 -8.5 C 60.511719 -20.171875 64.511719 -50.84375 60.84375 -57.175781 C 60.175781 -58.675781 58.675781 -59.511719 57.011719 -59.511719 C 55.84375 -59.511719 54.675781 -59.175781 53.675781 -58.511719 C 50.175781 -56.175781 47.007812 -49.675781 44.839844 -45.507812 C 33.003906 -21.503906 26.503906 10.335938 19.003906 37.671875 L 15.003906 49.675781 C 14.167969 51.507812 14.167969 52.34375 12.335938 52.84375 L 10.667969 44.675781 C 6.167969 17.667969 10 -26.839844 13.503906 -51.175781 C 16.503906 -71.347656 18.667969 -83.179688 23.835938 -102.183594 C 24.835938 -105.519531 27.503906 -111.6875 22.835938 -111.6875 C 16.167969 -111.6875 7.835938 -60.675781 7.335938 -57.34375 C 5.835938 -47.007812 4.5 -36.839844 3.332031 -26.339844 L 1.667969 7.335938 C 1.667969 18.167969 2.667969 59.34375 12.335938 59.34375 C 15.667969 59.34375 16.667969 57.675781 18.167969 55.007812 C 21.171875 47.675781 23.671875 40.507812 25.503906 32.839844 C 28.339844 23.003906 30.839844 12.003906 33.503906 1.5 C 37.007812 -12.835938 44.675781 -39.171875 53.84375 -51.507812 C 55.007812 -53.007812 54.84375 -53.507812 56.84375 -54.007812 C 56.84375 -51.507812 57.175781 -50.007812 57.175781 -48.675781 L 54.675781 -15.335938 C 54.175781 -8 54.175781 10.5 61.34375 10.5 C 70.179688 10.5 79.847656 -27.171875 82.679688 -34.671875 C 87.183594 -45.675781 89.683594 -55.007812 95.183594 -67.179688 C 100.515625 -79.179688 103.519531 -86.015625 110.351562 -97.183594 C 112.851562 -101.519531 116.519531 -107.183594 120.855469 -109.351562 C 124.6875 -101.019531 116.6875 -59.675781 115.1875 -50.34375 C 111.519531 -28.503906 110.019531 -13.835938 107.351562 7.167969 L 102.351562 81.515625 C 102.519531 83.515625 102.519531 84.515625 102.683594 87.347656 C 102.851562 90.015625 104.351562 91.683594 105.683594 91.683594 C 106.851562 91.683594 108.019531 90.347656 108.019531 87.347656 C 108.019531 81.179688 107.851562 73.511719 108.351562 67.511719 C 111.019531 43.507812 112.1875 20.335938 115.855469 -4.335938 L 126.1875 -73.179688 C 127.023438 -78.847656 133.855469 -115.351562 120.855469 -115.351562 C 109.1875 -115.351562 90.015625 -69.011719 86.515625 -60.175781 C 79.847656 -43.175781 75.179688 -27.503906 68.84375 -11 C 67.511719 -6.835938 64.34375 2.332031 61.34375 4.167969 Z M 61.34375 4.167969 "/></g></g></g><g fill="#ffffff" fill-opacity="1"><g transform="translate(200.964185, 214.883686)"><g><path d="M 0 -22.835938 C 0 -12.335938 4.667969 -2.5 16.167969 -2.5 C 28.003906 -2.5 38.507812 -14.003906 45.339844 -22.671875 C 46.175781 -23.671875 47.339844 -25.171875 47.839844 -26.339844 C 48.84375 -28.503906 48.007812 -30.339844 46.507812 -30.339844 C 45.675781 -30.339844 44.339844 -29.503906 43.175781 -27.839844 C 37.007812 -19.503906 27.839844 -8 16.335938 -8 C 12.335938 -8 10.5 -10.167969 9.335938 -13.167969 C 5.335938 -21.335938 11.167969 -36.007812 17.003906 -40.007812 C 17.335938 -37.171875 18.667969 -35.671875 20.003906 -35.671875 C 21.171875 -35.671875 22.171875 -37.007812 22.171875 -40.007812 C 22.171875 -44.339844 20.171875 -46.675781 16.835938 -46.675781 C 7.167969 -46.675781 0 -30.671875 0 -22.835938 Z M 0 -22.835938 "/></g></g></g></svg>